<?xml version="1.0" encoding="UTF-8"?>
<svg width="16px" height="8px" viewBox="0 0 16 8" version="1.1" xmlns="http://www.w3.org/2000/svg" xmlns:xlink="http://www.w3.org/1999/xlink">
    <!-- Generator: Sketch 61.1 (89650) - https://sketch.com -->
    <title>Path</title>
    <desc>Created with Sketch.</desc>
    <g id="Page-1" stroke="none" stroke-width="1" fill="none" fill-rule="evenodd">
        <g id="mainpage" transform="translate(-1791.000000, -1046.000000)" fill="#FFFFFF" fill-rule="nonzero">
            <g id="Group-4-Copy" transform="translate(154.000000, 981.000000)">
                <g id="Group-5" transform="translate(1599.000000, 57.000000)">
                    <path d="M49.8766151,11.6810395 L42.7323578,4.13328443 C42.5641456,3.95557186 42.2943713,3.95557186 42.1261591,4.13328443 C41.957947,4.31099701 41.957947,4.59600775 42.1261591,4.77372033 L48.9657302,11.9995809 L42.1261591,19.2254414 C41.957947,19.403154 41.957947,19.6881647 42.1261591,19.8658773 C42.2086783,19.9530571 42.3197619,20 42.4276716,20 C42.5355813,20 42.6466648,19.9564101 42.729184,19.8658773 L49.8734413,12.3181223 C50.0416535,12.1437628 50.0416535,11.855399 49.8766151,11.6810395 Z" id="Path" transform="translate(46.000000, 12.000000) scale(-1, -1) rotate(270.000000) translate(-46.000000, -12.000000) "></path>
                </g>
            </g>
        </g>
    </g>
</svg>