<?xml version="1.0" encoding="UTF-8"?>
<svg width="105px" height="80px" viewBox="0 0 105 80" version="1.1" xmlns="http://www.w3.org/2000/svg" xmlns:xlink="http://www.w3.org/1999/xlink">
    <!-- Generator: Sketch 61.1 (89650) - https://sketch.com -->
    <title>youtube</title>
    <desc>Created with Sketch.</desc>
    <g id="Page-1" stroke="none" stroke-width="1" fill="none" fill-rule="evenodd">
        <g id="media" transform="translate(-1371.000000, -525.000000)" fill="#FFFFFF" fill-rule="nonzero">
            <g id="youtube" transform="translate(1371.000000, 525.000000)">
                <path d="M103.008041,17.9541985 C103.008041,17.6067176 101.965802,9.9637659 98.6654453,6.31592875 C94.6701272,1.97333333 90.3275318,1.45221374 88.0694148,1.2783715 L87.3746565,1.2783715 C73.3044275,0.236132316 52.2860051,0.0624936387 51.9385242,0.0624936387 C51.7648855,0.0624936387 30.5726209,0.236132316 16.6760305,1.62585242 L16.1549109,1.62585242 C13.7227481,1.79949109 9.38015267,2.32061069 5.55867684,6.66320611 C2.08447837,10.3110433 1.04223919,18.1278372 1.04223919,18.4753181 C1.04223919,18.4753181 0,27.3343511 0,36.1933842 L0,44.357659 C0,53.0430534 1.04223919,61.9020865 1.04223919,62.0757252 C1.04223919,62.4232061 2.08447837,70.0661578 5.38483461,73.7139949 C9.03267176,77.8829517 13.3752672,78.4040712 16.1547074,78.7515522 C16.675827,78.7515522 17.0233079,78.7515522 17.5444275,78.9251908 C25.5348601,79.6199491 50.8960814,79.96743 51.9383206,79.96743 C52.1119593,79.96743 73.3042239,79.96743 87.3744529,78.4040712 L87.8955725,78.4040712 C90.3275318,78.2304326 94.6701272,77.709313 98.4916031,73.366514 C101.965802,69.7186768 103.008041,61.901883 103.008041,61.554402 C103.008041,61.554402 104.05028,52.695369 104.05028,43.8363359 L104.05028,35.6722646 C104.05028,26.9868702 103.008041,18.1278372 103.008041,17.9541985 Z M100.576081,44.1838168 C100.576081,52.8692112 99.5338422,61.554402 99.5338422,61.554402 C99.1863613,63.4652417 98.1441221,69.023715 95.8860051,71.4556743 C92.9329262,74.9298728 89.4589313,75.2771501 87.5480916,75.4509924 L87.026972,75.4509924 C73.1303817,76.4932316 52.1119593,76.4932316 51.9383206,76.4932316 C51.7646819,76.4932316 25.7087023,76.1457506 18.0655471,75.2773537 C17.5444275,75.2773537 17.0233079,75.103715 16.5021883,75.103715 C14.070229,74.9300763 10.5962341,74.4089567 7.81679389,71.2822392 C5.73231552,69.0241221 4.51643766,63.4654453 4.34259542,61.5546056 C4.34259542,61.3809669 3.30035623,52.6955725 3.30035623,44.1840204 L3.30035623,36.0197455 C3.30035623,27.3343511 4.34259542,18.6491603 4.34259542,18.6491603 C4.5162341,16.7383206 5.73231552,11.1798473 7.81679389,8.74788804 C10.9435115,5.27368957 14.2438677,4.92620865 16.3283461,4.75256997 L16.8494656,4.75256997 C30.746056,3.71033079 51.7644784,3.53669211 51.938117,3.53669211 C52.1117557,3.53669211 73.1303817,3.71033079 87.0267684,4.75256997 L87.7215267,4.75256997 C89.6323664,4.92620865 93.1063613,5.27368957 96.0594402,8.74788804 C98.1439186,11.1798473 99.1861578,16.7383206 99.5336387,18.6491603 C99.7072774,18.9966412 100.576081,27.6818321 100.576081,36.0197455 L100.576081,44.1838168 L100.576081,44.1838168 Z" id="Shape"></path>
                <path d="M73.6515013,40.1887023 L40.6473282,20.9072774 C40.1262087,20.5597964 39.4314504,20.5597964 38.9103308,20.9072774 C38.3892112,21.2547583 38.0417303,21.7758779 38.0417303,22.4706361 L38.0417303,60.1648855 C38.0417303,60.8596438 38.3892112,61.3807634 38.9103308,61.7282443 C39.2578117,61.901883 39.4314504,61.901883 39.7789313,61.901883 C40.1264122,61.901883 40.3000509,61.901883 40.6475318,61.7282443 L73.6517048,43.3154198 C74.1728244,42.9679389 74.5203053,42.4468193 74.5203053,41.7520611 C74.5203053,41.0573028 74.1726209,40.5359796 73.6515013,40.1887023 Z M41.5159288,57.2118066 L41.5159288,25.4235115 L69.3089059,41.7518575 L41.5159288,57.2118066 Z" id="Shape"></path>
            </g>
        </g>
    </g>
</svg>